<?xml version="1.0" encoding="utf-8"?>
<!-- Generator: Adobe Illustrator 23.0.6, SVG Export Plug-In . SVG Version: 6.00 Build 0)  -->
<svg version="1.1" id="Capa_1" xmlns="http://www.w3.org/2000/svg" xmlns:xlink="http://www.w3.org/1999/xlink" x="0px" y="0px"
	 viewBox="0 0 791.8 570.2" style="enable-background:new 0 0 791.8 570.2;" xml:space="preserve">
<style type="text/css">
	.st0{fill:#DB0F17;}
	.st1{fill:#FFFFFF;}
</style>
<g>
	<path class="st0" d="M0,0v226.3c0,458.5,791.8,458.5,791.8,0V0H0z"/>
	<path class="st1" d="M229.8,219.1c-5,0.5-10-1.2-13.7-4.7c-3.1-4.6-4-10.5-2.3-15.8c2.7-12.8,14-31.9,33.8-31.9
		c4-0.3,7.9,1.2,10.7,4.1c2.8,3.9,3.7,9,2.3,13.6C253.8,217.2,233.7,219.1,229.8,219.1 M248.1,153.8c-26.8,0-56.3,16-61.7,43.1
		c-5.8,28.9,20,35.1,36.5,35.3c37.3,0.5,59.7-21.8,64.9-44.4C292.7,166.1,273.5,153.8,248.1,153.8"/>
	<path class="st1" d="M492.7,194c-14,1.4-19.2,5.1-20.4,11.8c-0.9,5.4,2.6,10.4,15.6,9.9c7.5-0.3,14.9-2,21.7-5.1l6.5-16.9
		C508.3,193.1,500.5,193.2,492.7,194 M471.9,155.9c12.1-2.3,24.4-3.4,36.6-3.3c28.5,0,46,9.3,37.9,30.8c-3.5,9.3-7.2,18.6-10.3,26.9
		c-4.3,11.3-3.4,15.7-2.5,19.7c-6.7-1.9-13.7-2.6-20.7-2.1c-12.5,0.4-17.9,3.5-38.4,3.5c-22.2,0-30.3-11-29.5-22.6
		c0.9-11.2,8.5-20.7,19.2-24.1c8.1-3,16.7-4.8,25.4-5.1c10.6-0.8,21.2-0.8,31.8,0c1.2-3.8,2.8-11.6-15.9-11.7
		c-13.6-0.3-27.2,1.5-40.2,5.3L471.9,155.9z"/>
	<path class="st1" d="M379.4,217c-15.5,0-14-15.1-8.6-26.8c5.3-12.3,16.8-20.8,30.1-22.3c6-0.8,12.1,1,16.7,5
		c-10.5,40.8-31.7,44.1-38,44.1 M437.9,157.2c-13.7,0-14.3-3.7-36.4-3.7c-31.8,0-57.9,23.3-61.7,49.3c-1.3,7.4,0.8,15,5.8,20.6
		c5.7,5.3,13.2,8.1,20.9,7.8c12.7,0.9,25.3-2.4,36-9.3c-6.6,19.6-29.2,23.7-44.3,23.6c-7.5,0.4-14.9-0.8-21.9-3.4l-6.7,16.6
		c8,1.9,16.3,2.9,24.5,2.9c37.3,0,61.1-13.3,71-39.5l25.4-66.9C446.4,156.3,442.2,157,437.9,157.2"/>
	<path class="st1" d="M177.2,208.5c-8.1,3.5-16.8,5.6-25.7,6c-25,0-32.6-15.2-30-29.9c4.4-24.3,28-42.8,55.9-42.8
		c8,0,15.9,1.6,23.3,4.7l8.1-15.9c-8.1-3.4-16.8-5.1-25.6-5.1c-44.5,0-86.2,25.4-92,59.2c-5.2,29.8,20.6,46.6,52.2,46.6
		c8.7-0.1,17.3-1.2,25.7-3.2L177.2,208.5z"/>
	<path class="st1" d="M602.7,152.9l5.6-15l-28,4.7l-3.9,10.1h-12.4l-4.7,12.4h12.3l-14.8,36.7c-3.8,9.3-4,16.1-0.6,20.8
		c3.4,4.7,9.9,6.9,20.2,6.9c6.6-0.2,13.2-1.1,19.6-2.8l6-14.5l0,0c-4.3,1.7-8.8,2.7-13.3,3c-2.3,0.4-4.6-0.4-6.2-2.1
		c-1.7-2.2-1.2-6.6,1.2-12.6c0,0,12.3-30.1,14.4-35.3h18.6l4.7-12.4L602.7,152.9z"/>
	<path class="st1" d="M668.7,165.7c3.7-0.4,7.5,0.9,10.1,3.6c2.3,4.2,2.4,9.2,0.3,13.5h-34.6C647.9,172.3,657.7,165.3,668.7,165.7
		 M689,213L689,213c-9.1,3.7-18.9,5.6-28.8,5.6c-6.5,0.4-12.8-2.2-17.2-7c-3.3-4.5-4.3-10.3-2.5-15.6h60.8l0.3-0.8
		c4.7-13.2,4.1-24.8-1.7-32.6c-5.3-6.9-14.7-10.5-27.6-10.5c-28.8,0-53.3,16-59.7,39c-3.5,10-1.8,21,4.7,29.4
		c7,8.4,19.3,13.1,34.5,13.1c9.9-0.2,19.6-1.8,29-4.7L689,213z"/>
	<path class="st1" d="M668.7,165.7c3.7-0.4,7.5,0.9,10.1,3.6c2.3,4.2,2.4,9.2,0.3,13.5h-34.6C647.9,172.3,657.7,165.3,668.7,165.7
		 M689,213L689,213c-9.1,3.7-18.9,5.6-28.8,5.6c-6.5,0.4-12.8-2.2-17.2-7c-3.3-4.5-4.3-10.3-2.5-15.6h60.8l0.3-0.8
		c4.7-13.2,4.1-24.8-1.7-32.6c-5.3-6.9-14.7-10.5-27.6-10.5c-28.8,0-53.3,16-59.7,39c-3.5,10-1.8,21,4.7,29.4
		c7,8.4,19.3,13.1,34.5,13.1c9.9-0.2,19.6-1.8,29-4.7L689,213z"/>
	<path class="st1" d="M714.5,148.3h0.9c1.1,0,1.9-0.5,1.9-1.2c0-0.7-0.7-1.3-1.7-1.3h-1.1V148.3z M714.5,154.1h-3.1V144
		c1.5-0.3,2.9-0.4,4.4-0.4c1.4-0.2,2.8,0.1,4.1,0.8c0.7,0.5,1.1,1.4,1.1,2.2c0,1-1,1.9-2.4,2.3l0,0c1.2,0.3,2,1.4,2.1,2.6
		c0.1,0.8,0.4,1.6,0.7,2.4H718c-0.4-0.7-0.6-1.4-0.7-2.1c0-1-0.7-1.5-1.7-1.5h-1V154.1z M715.8,140.7c-4.6-0.1-8.3,3.5-8.4,8.1
		c-0.1,4.6,3.5,8.3,8.1,8.4s8.3-3.5,8.4-8.1c0-0.1,0-0.2,0-0.2c0.2-4.4-3.3-8-7.6-8.2C716.1,140.7,715.9,140.7,715.8,140.7z
		 M716.1,137.9c6.1,0.3,10.8,5.4,10.5,11.5c-0.3,6.1-5.4,10.8-11.5,10.5c-5.9-0.3-10.6-5.1-10.5-11c0-6.1,5-11,11.1-11
		C715.9,137.9,716,137.9,716.1,137.9z"/>
	<polygon class="st1" points="325.7,127.2 285.8,230.1 312.3,230.1 352.2,127.2 	"/>
	<path class="st1" d="M564.6,265.3L564.6,265.3c-20.8,23.9-46.2,43.5-74.6,57.6c-56.4,27.6-122.5,27.6-178.9,0
		c-28.4-14.1-53.8-33.7-74.6-57.6l-7.6,19.6c64,94.6,192.7,119.4,287.3,55.4c22-14.9,40.9-33.8,55.7-55.9L564.6,265.3z"/>
</g>
</svg>
